<?xml version="1.0" encoding="UTF-8"?>
<!DOCTYPE svg
PUBLIC "-//W3C//DTD SVG 1.1//EN"
       "http://www.w3.org/Graphics/SVG/1.1/DTD/svg11.dtd">
<svg viewBox="117 -8 1167 852" width="1050px" height="860px" xmlns="http://www.w3.org/2000/svg" version="1.1">
   <rect width="178" height="20" x="441" y="12" style="fill:#007;stroke:black;"/>
   <text width="178" height="20" x="446" y="26" style="fill:#fff;" font-family="Arial" font-size="16px"> costo_envio</text>
   <rect width="178" height="20" x="441" y="32" style="fill:#aea;stroke:black;"/>
   <text width="178" height="20" x="446" y="46" style="fill:black;" font-family="Arial" font-size="16px">id</text>
   <rect width="178" height="20" x="441" y="52" style="fill:none;stroke:black;"/>
   <text width="178" height="20" x="446" y="66" style="fill:black;" font-family="Arial" font-size="16px">envio</text>
   <rect width="178" height="20" x="441" y="72" style="fill:none;stroke:black;"/>
   <text width="178" height="20" x="446" y="86" style="fill:black;" font-family="Arial" font-size="16px">created_at</text>
   <rect width="178" height="20" x="441" y="92" style="fill:none;stroke:black;"/>
   <text width="178" height="20" x="446" y="106" style="fill:black;" font-family="Arial" font-size="16px">updated_at</text>
   <rect width="178" height="20" x="508" y="514" style="fill:#007;stroke:black;"/>
   <text width="178" height="20" x="513" y="528" style="fill:#fff;" font-family="Arial" font-size="16px"> detallados</text>
   <rect width="178" height="20" x="508" y="534" style="fill:#aea;stroke:black;"/>
   <text width="178" height="20" x="513" y="548" style="fill:black;" font-family="Arial" font-size="16px">id</text>
   <rect width="178" height="20" x="508" y="554" style="fill:none;stroke:black;"/>
   <text width="178" height="20" x="513" y="568" style="fill:black;" font-family="Arial" font-size="16px">cantidad</text>
   <rect width="178" height="20" x="508" y="574" style="fill:none;stroke:black;"/>
   <text width="178" height="20" x="513" y="588" style="fill:black;" font-family="Arial" font-size="16px">periodo</text>
   <rect width="178" height="20" x="508" y="594" style="fill:none;stroke:black;"/>
   <text width="178" height="20" x="513" y="608" style="fill:black;" font-family="Arial" font-size="16px">Importe_producto</text>
   <rect width="178" height="20" x="508" y="614" style="fill:none;stroke:black;"/>
   <text width="178" height="20" x="513" y="628" style="fill:black;" font-family="Arial" font-size="16px">importe_participacion</text>
   <rect width="178" height="20" x="508" y="634" style="fill:none;stroke:black;"/>
   <text width="178" height="20" x="513" y="648" style="fill:black;" font-family="Arial" font-size="16px">created_at</text>
   <rect width="178" height="20" x="508" y="654" style="fill:none;stroke:black;"/>
   <text width="178" height="20" x="513" y="668" style="fill:black;" font-family="Arial" font-size="16px">updated_at</text>
   <rect width="178" height="20" x="316" y="246" style="fill:#007;stroke:black;"/>
   <text width="178" height="20" x="321" y="260" style="fill:#fff;" font-family="Arial" font-size="16px"> estilos</text>
   <rect width="178" height="20" x="316" y="266" style="fill:#aea;stroke:black;"/>
   <text width="178" height="20" x="321" y="280" style="fill:black;" font-family="Arial" font-size="16px">id</text>
   <rect width="178" height="20" x="316" y="286" style="fill:none;stroke:black;"/>
   <text width="178" height="20" x="321" y="300" style="fill:black;" font-family="Arial" font-size="16px">estilo</text>
   <rect width="178" height="20" x="316" y="306" style="fill:none;stroke:black;"/>
   <text width="178" height="20" x="321" y="320" style="fill:black;" font-family="Arial" font-size="16px">color</text>
   <rect width="178" height="20" x="316" y="326" style="fill:none;stroke:black;"/>
   <text width="178" height="20" x="321" y="340" style="fill:black;" font-family="Arial" font-size="16px">created_at</text>
   <rect width="178" height="20" x="316" y="346" style="fill:none;stroke:black;"/>
   <text width="178" height="20" x="321" y="360" style="fill:black;" font-family="Arial" font-size="16px">updated_at</text>
   <rect width="178" height="20" x="726" y="280" style="fill:#007;stroke:black;"/>
   <text width="178" height="20" x="731" y="294" style="fill:#fff;" font-family="Arial" font-size="16px"> failed_jobs</text>
   <rect width="178" height="20" x="726" y="300" style="fill:#aea;stroke:black;"/>
   <text width="178" height="20" x="731" y="314" style="fill:black;" font-family="Arial" font-size="16px">id</text>
   <rect width="178" height="20" x="726" y="320" style="fill:none;stroke:black;"/>
   <text width="178" height="20" x="731" y="334" style="fill:black;" font-family="Arial" font-size="16px">uuid</text>
   <rect width="178" height="20" x="726" y="340" style="fill:none;stroke:black;"/>
   <text width="178" height="20" x="731" y="354" style="fill:black;" font-family="Arial" font-size="16px">connection</text>
   <rect width="178" height="20" x="726" y="360" style="fill:none;stroke:black;"/>
   <text width="178" height="20" x="731" y="374" style="fill:black;" font-family="Arial" font-size="16px">queue</text>
   <rect width="178" height="20" x="726" y="380" style="fill:none;stroke:black;"/>
   <text width="178" height="20" x="731" y="394" style="fill:black;" font-family="Arial" font-size="16px">payload</text>
   <rect width="178" height="20" x="726" y="400" style="fill:none;stroke:black;"/>
   <text width="178" height="20" x="731" y="414" style="fill:black;" font-family="Arial" font-size="16px">exception</text>
   <rect width="178" height="20" x="726" y="420" style="fill:none;stroke:black;"/>
   <text width="178" height="20" x="731" y="434" style="fill:black;" font-family="Arial" font-size="16px">failed_at</text>
   <rect width="178" height="20" x="672" y="11" style="fill:#007;stroke:black;"/>
   <text width="178" height="20" x="677" y="25" style="fill:#fff;" font-family="Arial" font-size="16px"> insert_cliente_proscais</text>
   <rect width="178" height="20" x="672" y="31" style="fill:#aea;stroke:black;"/>
   <text width="178" height="20" x="677" y="45" style="fill:black;" font-family="Arial" font-size="16px">id</text>
   <rect width="178" height="20" x="672" y="51" style="fill:none;stroke:black;"/>
   <text width="178" height="20" x="677" y="65" style="fill:black;" font-family="Arial" font-size="16px">clicod</text>
   <rect width="178" height="20" x="672" y="71" style="fill:none;stroke:black;"/>
   <text width="178" height="20" x="677" y="85" style="fill:black;" font-family="Arial" font-size="16px">clirfc</text>
   <rect width="178" height="20" x="672" y="91" style="fill:none;stroke:black;"/>
   <text width="178" height="20" x="677" y="105" style="fill:black;" font-family="Arial" font-size="16px">created_at</text>
   <rect width="178" height="20" x="672" y="111" style="fill:none;stroke:black;"/>
   <text width="178" height="20" x="677" y="125" style="fill:black;" font-family="Arial" font-size="16px">updated_at</text>
   <rect width="178" height="20" x="953" y="280" style="fill:#007;stroke:black;"/>
   <text width="178" height="20" x="958" y="294" style="fill:#fff;" font-family="Arial" font-size="16px"> migrations</text>
   <rect width="178" height="20" x="953" y="300" style="fill:#aea;stroke:black;"/>
   <text width="178" height="20" x="958" y="314" style="fill:black;" font-family="Arial" font-size="16px">id</text>
   <rect width="178" height="20" x="953" y="320" style="fill:none;stroke:black;"/>
   <text width="178" height="20" x="958" y="334" style="fill:black;" font-family="Arial" font-size="16px">migration</text>
   <rect width="178" height="20" x="953" y="340" style="fill:none;stroke:black;"/>
   <text width="178" height="20" x="958" y="354" style="fill:black;" font-family="Arial" font-size="16px">batch</text>
   <rect width="178" height="20" x="438" y="153" style="fill:#007;stroke:black;"/>
   <text width="178" height="20" x="443" y="167" style="fill:#fff;" font-family="Arial" font-size="16px"> password_resets</text>
   <rect width="178" height="20" x="438" y="173" style="fill:none;stroke:black;"/>
   <text width="178" height="20" x="443" y="187" style="fill:black;" font-family="Arial" font-size="16px">email</text>
   <rect width="178" height="20" x="438" y="193" style="fill:none;stroke:black;"/>
   <text width="178" height="20" x="443" y="207" style="fill:black;" font-family="Arial" font-size="16px">token</text>
   <rect width="178" height="20" x="438" y="213" style="fill:none;stroke:black;"/>
   <text width="178" height="20" x="443" y="227" style="fill:black;" font-family="Arial" font-size="16px">created_at</text>
   <rect width="178" height="20" x="133" y="11" style="fill:#007;stroke:black;"/>
   <text width="178" height="20" x="138" y="25" style="fill:#fff;" font-family="Arial" font-size="16px"> personal_access_tokens</text>
   <rect width="178" height="20" x="133" y="31" style="fill:#aea;stroke:black;"/>
   <text width="178" height="20" x="138" y="45" style="fill:black;" font-family="Arial" font-size="16px">id</text>
   <rect width="178" height="20" x="133" y="51" style="fill:none;stroke:black;"/>
   <text width="178" height="20" x="138" y="65" style="fill:black;" font-family="Arial" font-size="16px">tokenable_type</text>
   <rect width="178" height="20" x="133" y="71" style="fill:none;stroke:black;"/>
   <text width="178" height="20" x="138" y="85" style="fill:black;" font-family="Arial" font-size="16px">tokenable_id</text>
   <rect width="178" height="20" x="133" y="91" style="fill:none;stroke:black;"/>
   <text width="178" height="20" x="138" y="105" style="fill:black;" font-family="Arial" font-size="16px">name</text>
   <rect width="178" height="20" x="133" y="111" style="fill:none;stroke:black;"/>
   <text width="178" height="20" x="138" y="125" style="fill:black;" font-family="Arial" font-size="16px">token</text>
   <rect width="178" height="20" x="133" y="131" style="fill:none;stroke:black;"/>
   <text width="178" height="20" x="138" y="145" style="fill:black;" font-family="Arial" font-size="16px">abilities</text>
   <rect width="178" height="20" x="133" y="151" style="fill:none;stroke:black;"/>
   <text width="178" height="20" x="138" y="165" style="fill:black;" font-family="Arial" font-size="16px">last_used_at</text>
   <rect width="178" height="20" x="133" y="171" style="fill:none;stroke:black;"/>
   <text width="178" height="20" x="138" y="185" style="fill:black;" font-family="Arial" font-size="16px">created_at</text>
   <rect width="178" height="20" x="133" y="191" style="fill:none;stroke:black;"/>
   <text width="178" height="20" x="138" y="205" style="fill:black;" font-family="Arial" font-size="16px">updated_at</text>
   <rect width="178" height="20" x="700" y="155" style="fill:#007;stroke:black;"/>
   <text width="178" height="20" x="705" y="169" style="fill:#fff;" font-family="Arial" font-size="16px"> prendaas</text>
   <rect width="178" height="20" x="700" y="175" style="fill:#aea;stroke:black;"/>
   <text width="178" height="20" x="705" y="189" style="fill:black;" font-family="Arial" font-size="16px">id</text>
   <rect width="178" height="20" x="700" y="195" style="fill:none;stroke:black;"/>
   <text width="178" height="20" x="705" y="209" style="fill:black;" font-family="Arial" font-size="16px">prenda</text>
   <rect width="178" height="20" x="700" y="215" style="fill:none;stroke:black;"/>
   <text width="178" height="20" x="705" y="229" style="fill:black;" font-family="Arial" font-size="16px">created_at</text>
   <rect width="178" height="20" x="700" y="235" style="fill:none;stroke:black;"/>
   <text width="178" height="20" x="705" y="249" style="fill:black;" font-family="Arial" font-size="16px">updated_at</text>
   <rect width="178" height="20" x="271" y="397" style="fill:#007;stroke:black;"/>
   <text width="178" height="20" x="276" y="411" style="fill:#fff;" font-family="Arial" font-size="16px"> reports</text>
   <rect width="178" height="20" x="271" y="417" style="fill:#aea;stroke:black;"/>
   <text width="178" height="20" x="276" y="431" style="fill:black;" font-family="Arial" font-size="16px">id</text>
   <rect width="178" height="20" x="271" y="437" style="fill:none;stroke:black;"/>
   <text width="178" height="20" x="276" y="451" style="fill:black;" font-family="Arial" font-size="16px">pedidos_vanity</text>
   <rect width="178" height="20" x="271" y="457" style="fill:none;stroke:black;"/>
   <text width="178" height="20" x="276" y="471" style="fill:black;" font-family="Arial" font-size="16px">seq</text>
   <rect width="178" height="20" x="271" y="477" style="fill:none;stroke:black;"/>
   <text width="178" height="20" x="276" y="491" style="fill:black;" font-family="Arial" font-size="16px">require_fac</text>
   <rect width="178" height="20" x="271" y="497" style="fill:none;stroke:black;"/>
   <text width="178" height="20" x="276" y="511" style="fill:black;" font-family="Arial" font-size="16px">nombre</text>
   <rect width="178" height="20" x="271" y="517" style="fill:none;stroke:black;"/>
   <text width="178" height="20" x="276" y="531" style="fill:black;" font-family="Arial" font-size="16px">rfc</text>
   <rect width="178" height="20" x="271" y="537" style="fill:none;stroke:black;"/>
   <text width="178" height="20" x="276" y="551" style="fill:black;" font-family="Arial" font-size="16px">pago_calle</text>
   <rect width="178" height="20" x="271" y="557" style="fill:none;stroke:black;"/>
   <text width="178" height="20" x="276" y="571" style="fill:black;" font-family="Arial" font-size="16px">pago_colonia</text>
   <rect width="178" height="20" x="271" y="577" style="fill:none;stroke:black;"/>
   <text width="178" height="20" x="276" y="591" style="fill:black;" font-family="Arial" font-size="16px">pago_del_o_mnpo</text>
   <rect width="178" height="20" x="271" y="597" style="fill:none;stroke:black;"/>
   <text width="178" height="20" x="276" y="611" style="fill:black;" font-family="Arial" font-size="16px">pago_cp</text>
   <rect width="178" height="20" x="271" y="617" style="fill:none;stroke:black;"/>
   <text width="178" height="20" x="276" y="631" style="fill:black;" font-family="Arial" font-size="16px">pago_estado</text>
   <rect width="178" height="20" x="271" y="637" style="fill:none;stroke:black;"/>
   <text width="178" height="20" x="276" y="651" style="fill:black;" font-family="Arial" font-size="16px">pago_pais</text>
   <rect width="178" height="20" x="271" y="657" style="fill:none;stroke:black;"/>
   <text width="178" height="20" x="276" y="671" style="fill:black;" font-family="Arial" font-size="16px">correo</text>
   <rect width="178" height="20" x="271" y="677" style="fill:none;stroke:black;"/>
   <text width="178" height="20" x="276" y="691" style="fill:black;" font-family="Arial" font-size="16px">metodo_pago</text>
   <rect width="178" height="20" x="271" y="697" style="fill:none;stroke:black;"/>
   <text width="178" height="20" x="276" y="711" style="fill:black;" font-family="Arial" font-size="16px">uso_factura</text>
   <rect width="178" height="20" x="271" y="717" style="fill:none;stroke:black;"/>
   <text width="178" height="20" x="276" y="731" style="fill:black;" font-family="Arial" font-size="16px">estilo_completo</text>
   <rect width="178" height="20" x="271" y="737" style="fill:none;stroke:black;"/>
   <text width="178" height="20" x="276" y="751" style="fill:black;" font-family="Arial" font-size="16px">cantidad</text>
   <rect width="178" height="20" x="271" y="757" style="fill:none;stroke:black;"/>
   <text width="178" height="20" x="276" y="771" style="fill:black;" font-family="Arial" font-size="16px">importe_sin_iva</text>
   <rect width="178" height="20" x="271" y="777" style="fill:none;stroke:black;"/>
   <text width="178" height="20" x="276" y="791" style="fill:black;" font-family="Arial" font-size="16px">pago_metodo_pago</text>
   <rect width="178" height="20" x="271" y="797" style="fill:none;stroke:black;"/>
   <text width="178" height="20" x="276" y="811" style="fill:black;" font-family="Arial" font-size="16px">created_at</text>
   <rect width="178" height="20" x="271" y="817" style="fill:none;stroke:black;"/>
   <text width="178" height="20" x="276" y="831" style="fill:black;" font-family="Arial" font-size="16px">updated_at</text>
   <rect width="178" height="20" x="974" y="7" style="fill:#007;stroke:black;"/>
   <text width="178" height="20" x="979" y="21" style="fill:#fff;" font-family="Arial" font-size="16px"> table_precios</text>
   <rect width="178" height="20" x="974" y="27" style="fill:#aea;stroke:black;"/>
   <text width="178" height="20" x="979" y="41" style="fill:black;" font-family="Arial" font-size="16px">id</text>
   <rect width="178" height="20" x="974" y="47" style="fill:none;stroke:black;"/>
   <text width="178" height="20" x="979" y="61" style="fill:black;" font-family="Arial" font-size="16px">estilo</text>
   <rect width="178" height="20" x="974" y="67" style="fill:none;stroke:black;"/>
   <text width="178" height="20" x="979" y="81" style="fill:black;" font-family="Arial" font-size="16px">prenda</text>
   <rect width="178" height="20" x="974" y="87" style="fill:none;stroke:black;"/>
   <text width="178" height="20" x="979" y="101" style="fill:black;" font-family="Arial" font-size="16px">precio_venta_vanity</text>
   <rect width="178" height="20" x="974" y="107" style="fill:none;stroke:black;"/>
   <text width="178" height="20" x="979" y="121" style="fill:black;" font-family="Arial" font-size="16px">precio_venta_mk</text>
   <rect width="178" height="20" x="974" y="127" style="fill:none;stroke:black;"/>
   <text width="178" height="20" x="979" y="141" style="fill:black;" font-family="Arial" font-size="16px">precio_venta_mk_iva</text>
   <rect width="178" height="20" x="974" y="147" style="fill:none;stroke:black;"/>
   <text width="178" height="20" x="979" y="161" style="fill:black;" font-family="Arial" font-size="16px">diferencia</text>
   <rect width="178" height="20" x="974" y="167" style="fill:none;stroke:black;"/>
   <text width="178" height="20" x="979" y="181" style="fill:black;" font-family="Arial" font-size="16px">margen</text>
   <rect width="178" height="20" x="974" y="187" style="fill:none;stroke:black;"/>
   <text width="178" height="20" x="979" y="201" style="fill:black;" font-family="Arial" font-size="16px">descuento</text>
   <rect width="178" height="20" x="974" y="207" style="fill:none;stroke:black;"/>
   <text width="178" height="20" x="979" y="221" style="fill:black;" font-family="Arial" font-size="16px">created_at</text>
   <rect width="178" height="20" x="974" y="227" style="fill:none;stroke:black;"/>
   <text width="178" height="20" x="979" y="241" style="fill:black;" font-family="Arial" font-size="16px">updated_at</text>
   <rect width="178" height="20" x="132" y="244" style="fill:#007;stroke:black;"/>
   <text width="178" height="20" x="137" y="258" style="fill:#fff;" font-family="Arial" font-size="16px"> tallas</text>
   <rect width="178" height="20" x="132" y="264" style="fill:#aea;stroke:black;"/>
   <text width="178" height="20" x="137" y="278" style="fill:black;" font-family="Arial" font-size="16px">id</text>
   <rect width="178" height="20" x="132" y="284" style="fill:none;stroke:black;"/>
   <text width="178" height="20" x="137" y="298" style="fill:black;" font-family="Arial" font-size="16px">tallas</text>
   <rect width="178" height="20" x="132" y="304" style="fill:none;stroke:black;"/>
   <text width="178" height="20" x="137" y="318" style="fill:black;" font-family="Arial" font-size="16px">created_at</text>
   <rect width="178" height="20" x="132" y="324" style="fill:none;stroke:black;"/>
   <text width="178" height="20" x="137" y="338" style="fill:black;" font-family="Arial" font-size="16px">updated_at</text>
   <rect width="178" height="20" x="510" y="279" style="fill:#007;stroke:black;"/>
   <text width="178" height="20" x="515" y="293" style="fill:#fff;" font-family="Arial" font-size="16px"> users</text>
   <rect width="178" height="20" x="510" y="299" style="fill:#aea;stroke:black;"/>
   <text width="178" height="20" x="515" y="313" style="fill:black;" font-family="Arial" font-size="16px">id</text>
   <rect width="178" height="20" x="510" y="319" style="fill:none;stroke:black;"/>
   <text width="178" height="20" x="515" y="333" style="fill:black;" font-family="Arial" font-size="16px">name</text>
   <rect width="178" height="20" x="510" y="339" style="fill:none;stroke:black;"/>
   <text width="178" height="20" x="515" y="353" style="fill:black;" font-family="Arial" font-size="16px">email</text>
   <rect width="178" height="20" x="510" y="359" style="fill:none;stroke:black;"/>
   <text width="178" height="20" x="515" y="373" style="fill:black;" font-family="Arial" font-size="16px">email_verified_at</text>
   <rect width="178" height="20" x="510" y="379" style="fill:none;stroke:black;"/>
   <text width="178" height="20" x="515" y="393" style="fill:black;" font-family="Arial" font-size="16px">password</text>
   <rect width="178" height="20" x="510" y="399" style="fill:none;stroke:black;"/>
   <text width="178" height="20" x="515" y="413" style="fill:black;" font-family="Arial" font-size="16px">rol</text>
   <rect width="178" height="20" x="510" y="419" style="fill:none;stroke:black;"/>
   <text width="178" height="20" x="515" y="433" style="fill:black;" font-family="Arial" font-size="16px">remember_token</text>
   <rect width="178" height="20" x="510" y="439" style="fill:none;stroke:black;"/>
   <text width="178" height="20" x="515" y="453" style="fill:black;" font-family="Arial" font-size="16px">created_at</text>
   <rect width="178" height="20" x="510" y="459" style="fill:none;stroke:black;"/>
   <text width="178" height="20" x="515" y="473" style="fill:black;" font-family="Arial" font-size="16px">updated_at</text>
   <rect width="178" height="20" x="953" y="376" style="fill:#007;stroke:black;"/>
   <text width="178" height="20" x="958" y="390" style="fill:#fff;" font-family="Arial" font-size="16px"> years</text>
   <rect width="178" height="20" x="953" y="396" style="fill:#aea;stroke:black;"/>
   <text width="178" height="20" x="958" y="410" style="fill:black;" font-family="Arial" font-size="16px">id</text>
   <rect width="178" height="20" x="953" y="416" style="fill:none;stroke:black;"/>
   <text width="178" height="20" x="958" y="430" style="fill:black;" font-family="Arial" font-size="16px">year</text>
   <rect width="178" height="20" x="953" y="436" style="fill:none;stroke:black;"/>
   <text width="178" height="20" x="958" y="450" style="fill:black;" font-family="Arial" font-size="16px">created_at</text>
   <rect width="178" height="20" x="953" y="456" style="fill:none;stroke:black;"/>
   <text width="178" height="20" x="958" y="470" style="fill:black;" font-family="Arial" font-size="16px">updated_at</text>
</svg>
